<svg width="245" height="130" viewBox="0 0 245 130" fill="none" xmlns="http://www.w3.org/2000/svg">
<g clip-path="url(#clip0_14_8)">
<path fill-rule="evenodd" clip-rule="evenodd" d="M139.46 49.63L130.22 33.62C129.42 32.23 129.9 30.46 131.29 29.66C131.75 29.4 132.24 29.27 132.74 29.27V29.26H151.26V10.66C151.26 9.05 152.57 7.74 154.18 7.74C154.79 7.74 155.35 7.93 155.82 8.24L171.64 17.44L180.93 1.44C181.74 0.0499988 183.52 -0.420001 184.9 0.379999C185.36 0.649999 185.72 1.02 185.97 1.46L195.25 17.44L211.25 8.13C212.64 7.32 214.42 7.8 215.22 9.19C215.49 9.65 215.61 10.15 215.61 10.65L215.62 29.25H234.22C235.83 29.25 237.14 30.56 237.14 32.17C237.14 32.78 236.95 33.34 236.64 33.81L227.44 49.63L243.44 58.92C244.83 59.73 245.3 61.51 244.5 62.89C244.23 63.35 243.86 63.71 243.42 63.96L227.44 73.24L236.75 89.24C237.56 90.63 237.08 92.41 235.69 93.21C235.23 93.48 234.73 93.6 234.23 93.6L215.63 93.61V112.13C215.63 113.74 214.32 115.05 212.71 115.05C212.08 115.05 211.5 114.85 211.02 114.51L195.25 105.41L185.96 121.42C185.15 122.81 183.37 123.28 181.99 122.48C181.53 122.21 181.17 121.84 180.92 121.4L171.64 105.41L155.63 114.65C154.24 115.45 152.47 114.97 151.67 113.58C151.41 113.12 151.28 112.63 151.28 112.13H151.27V93.62H132.74C131.13 93.62 129.82 92.31 129.82 90.7C129.82 90.07 130.02 89.49 130.36 89.01L139.46 73.24L123.45 63.96C122.06 63.15 121.59 61.37 122.39 59.99C122.66 59.53 123.03 59.17 123.47 58.92L139.46 49.63ZM166.67 40.46C170.26 40.46 173.15 41.48 175.34 43.53C177.52 45.58 178.61 48.3 178.61 51.69C178.61 55.09 177.52 57.81 175.34 59.86C173.15 61.91 170.26 62.93 166.67 62.93C163.08 62.93 160.2 61.9 158.01 59.86C155.83 57.81 154.73 55.09 154.73 51.69C154.73 48.3 155.83 45.57 158.01 43.53C160.2 41.48 163.08 40.46 166.67 40.46ZM192.87 42.06H202.59L174.13 80.77H164.41L192.87 42.06ZM166.67 49.13C165.89 49.13 165.3 49.36 164.89 49.8C164.48 50.25 164.27 50.88 164.27 51.7C164.27 52.52 164.48 53.16 164.89 53.61C165.3 54.05 165.89 54.28 166.67 54.28C167.45 54.28 168.05 54.05 168.46 53.61C168.87 53.15 169.07 52.52 169.07 51.7C169.07 50.88 168.87 50.25 168.46 49.8C168.06 49.36 167.46 49.13 166.67 49.13ZM200.2 59.93C203.79 59.93 206.67 60.96 208.86 63C211.04 65.05 212.14 67.77 212.14 71.17C212.14 74.56 211.04 77.29 208.86 79.33C206.67 81.38 203.79 82.4 200.2 82.4C196.61 82.4 193.72 81.38 191.53 79.33C189.35 77.28 188.26 74.56 188.26 71.17C188.26 67.77 189.35 65.05 191.53 63C193.72 60.96 196.61 59.93 200.2 59.93ZM200.2 68.6C199.42 68.6 198.82 68.83 198.41 69.27C198 69.73 197.79 70.35 197.79 71.18C197.79 72 198 72.63 198.41 73.08C198.82 73.53 199.42 73.75 200.2 73.75C200.97 73.75 201.57 73.52 201.98 73.08C202.39 72.63 202.6 72 202.6 71.18C202.6 70.35 202.39 69.72 201.98 69.27C201.58 68.82 200.98 68.6 200.2 68.6Z" fill="#FF565B"/>
</g>
<path d="M33.0966 31.2727V104H24.2898V40.5057H23.8636L6.10795 52.2955V43.3466L24.2898 31.2727H33.0966ZM76.7401 104.994C72.5734 104.994 68.821 104.166 65.483 102.509C62.1449 100.851 59.4697 98.5786 57.4574 95.6903C55.4451 92.8021 54.3442 89.5114 54.1548 85.8182H62.6776C63.009 89.1089 64.5005 91.8314 67.152 93.9858C69.8272 96.1165 73.0232 97.1818 76.7401 97.1818C79.723 97.1818 82.3745 96.4834 84.6946 95.0866C87.0384 93.6899 88.8731 91.7723 90.1989 89.3338C91.5483 86.8717 92.223 84.09 92.223 80.9886C92.223 77.8163 91.5246 74.9872 90.1278 72.5014C88.7547 69.992 86.8608 68.0152 84.446 66.571C82.0313 65.1269 79.2732 64.393 76.1719 64.3693C73.9465 64.3456 71.6619 64.6889 69.3182 65.3991C66.9744 66.0857 65.045 66.9735 63.5298 68.0625L55.2912 67.0682L59.6946 31.2727H97.4787V39.0852H67.081L64.5241 60.5341H64.9503C66.4418 59.3504 68.312 58.3679 70.5611 57.5866C72.8101 56.8054 75.1539 56.4148 77.5923 56.4148C82.0431 56.4148 86.0085 57.4801 89.4886 59.6108C92.9924 61.7178 95.7386 64.6061 97.7273 68.2756C99.7396 71.9451 100.746 76.1354 100.746 80.8466C100.746 85.4867 99.7041 89.6297 97.6207 93.2756C95.5611 96.8977 92.7202 99.7623 89.098 101.869C85.4759 103.953 81.3565 104.994 76.7401 104.994Z" fill="#FF565B"/>
<defs>
<clipPath id="clip0_14_8">
<rect width="122.88" height="122.88" fill="white" transform="translate(122)"/>
</clipPath>
</defs>
</svg>
