<svg width="546" height="94" viewBox="0 0 546 94" fill="none" xmlns="http://www.w3.org/2000/svg">
<g clip-path="url(#clip0_2_2)">
<path d="M146.219 19.1108C146.322 19.3784 146.399 19.7416 146.451 20.2004C146.528 20.6591 146.567 21.2135 146.567 21.8634C146.567 23.5073 146.412 25.3232 146.103 27.3112C145.768 29.2992 145.317 31.421 144.75 33.6765C144.209 35.9704 143.526 38.3215 142.701 40.73C141.902 43.1768 141.013 45.6426 140.034 48.1276C139.08 50.6125 138.036 53.0593 136.902 55.4678C135.768 57.9145 134.595 60.2848 133.384 62.5786C134.131 63.9167 134.93 65.1783 135.781 66.3634C136.657 67.5485 137.559 68.5999 138.487 69.5174C137.92 70.1673 137.379 70.6834 136.863 71.0657C136.168 70.607 135.381 69.8997 134.505 68.9439C133.603 68.0264 132.675 66.8795 131.722 65.5032C129.686 69.0969 127.624 72.1935 125.536 74.7932C123.474 77.4311 121.425 79.3808 119.389 80.6424C119.157 80.7953 118.848 80.9291 118.461 81.0438C118.101 81.1585 117.611 81.2158 116.992 81.2158C116.503 81.2158 115.987 80.9482 115.446 80.413C114.93 79.8778 114.428 79.2279 113.938 78.4633C113.448 77.6987 113.023 76.9341 112.662 76.1695C112.276 75.4049 111.979 74.7932 111.773 74.3344C111.541 73.8374 111.348 73.2257 111.193 72.4993C111.064 71.773 111 70.8554 111 69.7468C111 68.4087 111.09 67.0515 111.271 65.6753C111.477 64.299 111.838 62.7124 112.353 60.9156C112.559 60.8009 112.933 60.6097 113.474 60.3421C114.015 60.1128 114.608 59.8643 115.253 59.5966C115.897 59.329 116.528 59.0805 117.147 58.8512C117.791 58.6218 118.32 58.4497 118.732 58.335C118.216 59.5202 117.727 60.648 117.263 61.7184C116.799 62.8271 116.399 63.9167 116.064 64.9871C115.755 66.0576 115.497 67.1662 115.291 68.3131C115.111 69.46 115.021 70.6643 115.021 71.9259C115.021 72.4229 115.085 72.9199 115.214 73.4169C115.343 73.9139 115.588 74.1624 115.948 74.1624C116.49 74.1624 117.173 73.7418 117.997 72.9008C118.822 72.0979 119.737 70.9893 120.742 69.5747C121.773 68.122 122.856 66.4207 123.99 64.471C125.149 62.483 126.322 60.3613 127.508 58.1057C126.838 56.6912 126.219 55.2002 125.652 53.6327C125.085 52.0271 124.595 50.3832 124.183 48.701C123.771 46.9807 123.448 45.2221 123.216 43.4253C122.985 41.5902 122.869 39.736 122.869 37.8628C122.869 35.1102 123.165 32.5488 123.758 30.1785C124.351 27.8464 125.137 25.7055 126.116 23.7558C127.07 21.8443 128.178 20.1622 129.441 18.7094C130.704 17.2567 132.005 16.0333 133.345 15.0393C134.686 14.0453 136.013 13.2807 137.327 12.7455C138.642 12.2485 139.84 12 140.923 12C141.541 12 141.992 12.172 142.276 12.5161C142.585 12.7837 142.946 13.2234 143.358 13.8351C143.745 14.4085 144.144 15.0202 144.557 15.6701C144.943 16.32 145.291 16.9508 145.601 17.5625C145.91 18.2124 146.116 18.7285 146.219 19.1108ZM127.508 42.1063C127.508 43.8649 127.688 45.7382 128.049 47.7262C128.436 49.7524 128.964 51.7977 129.634 53.8621C130.691 51.683 131.722 49.4656 132.727 47.21C133.732 44.9162 134.698 42.6224 135.626 40.3286C136.528 38.073 137.366 35.8366 138.139 33.6192C138.887 31.4401 139.544 29.3565 140.111 27.3686C140.652 25.4188 141.077 23.6029 141.387 21.9207C141.696 20.2386 141.851 18.7668 141.851 17.5052C141.851 17.1611 141.812 16.9508 141.735 16.8744C141.631 16.7979 141.503 16.7597 141.348 16.7597C141.116 16.7597 140.601 16.9699 139.802 17.3905C139.028 17.811 138.126 18.48 137.095 19.3976C136.09 20.2768 135.021 21.4046 133.887 22.7809C132.753 24.1572 131.722 25.782 130.794 27.6553C129.84 29.5668 129.054 31.7268 128.436 34.1353C127.817 36.5056 127.508 39.1626 127.508 42.1063ZM149.544 54.4356C149.338 55.2766 149.131 56.1177 148.925 56.9588C148.719 57.8381 148.5 58.7365 148.268 59.654C149.376 57.7425 150.343 56.1942 151.168 55.009C151.966 53.8239 152.637 52.8872 153.178 52.1991C153.745 51.5492 154.196 51.0904 154.531 50.8228C154.866 50.5934 155.137 50.4787 155.343 50.4787C155.575 50.4787 155.923 50.6508 156.387 50.9948C156.825 51.3007 157.276 51.7021 157.74 52.1991C158.229 52.6961 158.642 53.2122 158.977 53.7474C159.312 54.2826 159.479 54.7414 159.479 55.1237C159.479 55.2002 159.479 55.2957 159.479 55.4104C159.454 55.5251 159.428 55.678 159.402 55.8692C159.247 56.5191 159.067 57.2837 158.861 58.163C158.629 59.0805 158.384 60.0172 158.126 60.9729C157.894 61.8905 157.649 62.8271 157.392 63.7829C157.16 64.7386 156.941 65.637 156.735 66.4781C156.554 67.3192 156.399 68.0646 156.271 68.7146C156.142 69.3262 156.077 69.7659 156.077 70.0335C156.077 70.2247 156.129 70.3202 156.232 70.3202C156.438 70.3202 156.735 70.1482 157.121 69.8041C157.508 69.46 157.946 69.0013 158.436 68.4278C158.951 67.8926 159.479 67.3 160.021 66.6501C160.562 66.0002 161.09 65.3503 161.606 64.7004C162.095 64.0505 162.546 63.477 162.959 62.98C163.371 62.4448 163.68 62.0434 163.887 61.7758C164.067 62.0052 164.26 62.311 164.466 62.6933C164.673 63.0756 164.866 63.4197 165.046 63.7255C164.66 64.299 164.183 64.9871 163.616 65.7899C163.023 66.631 162.392 67.4721 161.722 68.3131C161.052 69.1924 160.343 70.0526 159.595 70.8937C158.874 71.773 158.165 72.5567 157.469 73.2448C156.799 73.933 156.155 74.4873 155.536 74.9079C154.943 75.2902 154.441 75.4813 154.028 75.4813C153.771 75.4813 153.436 75.3475 153.023 75.0799C152.637 74.8123 152.25 74.4873 151.863 74.105C151.477 73.6845 151.155 73.2257 150.897 72.7287C150.639 72.2317 150.51 71.7539 150.51 71.2951C150.665 70.2247 150.884 69.0013 151.168 67.625C151.425 66.2869 151.709 64.8915 152.018 63.4388C152.353 62.0243 152.688 60.6097 153.023 59.1952C153.358 57.8189 153.693 56.5382 154.028 55.3531L153.951 55.4104C153.616 56.0221 153.139 56.825 152.521 57.8189C151.902 58.7747 151.193 60.0172 150.394 61.5464C149.595 63.0756 148.758 64.9298 147.881 67.1089C147.005 69.2498 146.142 71.7921 145.291 74.7358C145.188 75.1181 145.098 75.424 145.021 75.6533C144.918 75.8445 144.75 75.9401 144.518 75.9401C144.209 75.9401 143.861 75.8063 143.474 75.5387C143.113 75.3093 142.727 74.9843 142.314 74.5638C141.928 74.1815 141.541 73.7418 141.155 73.2448C140.742 72.7478 140.381 72.2509 140.072 71.7539C140.072 71.6009 140.124 71.1613 140.227 70.4349C140.304 69.6703 140.433 68.7337 140.613 67.625C140.794 66.5163 141.013 65.2547 141.271 63.8402C141.554 62.4257 141.863 60.9347 142.198 59.3673C142.508 57.7998 142.869 56.1942 143.281 54.5503C143.668 52.9064 144.093 51.3389 144.557 49.8479C145.304 50.3449 146.129 50.9757 147.031 51.7403C147.933 52.5049 148.771 53.4033 149.544 54.4356ZM179.621 69.0013C179.621 69.6512 179.763 69.9762 180.046 69.9762C180.381 69.9762 180.781 69.8232 181.245 69.5174C181.709 69.2116 182.198 68.791 182.714 68.2558C183.229 67.7588 183.745 67.2045 184.26 66.5928C184.802 65.9429 185.304 65.3121 185.768 64.7004C186.232 64.1269 186.657 63.5726 187.044 63.0374C187.405 62.5021 187.688 62.0816 187.894 61.7758C188.075 62.0052 188.294 62.311 188.552 62.6933C188.783 63.0756 189.003 63.4197 189.209 63.7255C188.745 64.3754 188.216 65.1209 187.624 65.962C187.057 66.803 186.438 67.6632 185.768 68.5425C185.098 69.4218 184.415 70.282 183.719 71.1231C182.997 71.9259 182.289 72.6523 181.593 73.3022C180.871 73.9521 180.175 74.4682 179.505 74.8505C178.835 75.2328 178.204 75.424 177.611 75.424C177.302 75.424 176.915 75.2137 176.451 74.7932C175.987 74.3726 175.549 73.8374 175.137 73.1875C174.724 72.5758 174.363 71.9259 174.054 71.2378C173.771 70.5496 173.629 69.9188 173.629 69.3454C173.629 68.1602 173.68 66.9177 173.784 65.6179C172.985 66.6501 172.224 67.625 171.503 68.5425C170.755 69.4983 170.008 70.3967 169.26 71.2378C168.513 72.0406 167.74 72.7861 166.941 73.4742C166.168 74.1624 165.343 74.7549 164.466 75.2519C164.209 75.4049 163.977 75.4813 163.771 75.4813C163.59 75.4813 163.358 75.3666 163.075 75.1372C162.791 74.8696 162.521 74.5256 162.263 74.105C162.005 73.7227 161.773 73.264 161.567 72.7287C161.387 72.2317 161.296 71.7539 161.296 71.2951C161.296 70.2247 161.425 69.0204 161.683 67.6823C161.966 66.3825 162.366 65.0253 162.881 63.6108C163.397 62.1963 164.028 60.8009 164.776 59.4246C165.523 58.0101 166.374 56.6912 167.327 55.4678C168.281 54.2062 169.338 53.0784 170.497 52.0844C171.631 51.0904 172.856 50.2876 174.17 49.6759C174.402 49.7141 174.711 49.8862 175.098 50.192C175.485 50.4596 175.845 50.7272 176.18 50.9948C176.825 48.3187 177.559 45.6235 178.384 42.9091C179.183 40.1948 180.046 37.5951 180.974 35.1102C181.902 32.6252 182.869 30.2932 183.874 28.114C184.879 25.9349 185.884 23.9852 186.889 22.2648C187.894 20.5827 188.887 19.2255 189.866 18.1933C190.845 17.1611 191.773 16.5303 192.649 16.3009C193.036 16.3009 193.448 16.4729 193.887 16.817C194.325 17.1993 194.737 17.6581 195.124 18.1933C195.51 18.7285 195.832 19.2829 196.09 19.8563C196.374 20.4298 196.554 20.9268 196.631 21.3473C196.631 22.5324 196.425 23.9278 196.013 25.5335C195.601 27.1392 195.046 28.8595 194.351 30.6946C193.629 32.5296 192.778 34.4603 191.799 36.4865C190.82 38.4744 189.763 40.5198 188.629 42.6224C187.521 44.6869 186.335 46.7513 185.072 48.8157C183.835 50.8801 182.598 52.8872 181.361 54.837C180.82 57.4749 180.394 59.9981 180.085 62.4066C179.776 64.8533 179.621 67.0515 179.621 69.0013ZM192.881 21.0032C192.598 21.0032 192.237 21.3282 191.799 21.9781C191.361 22.628 190.871 23.5455 190.33 24.7307C189.814 25.8776 189.247 27.2539 188.629 28.8595C188.036 30.4652 187.43 32.2047 186.812 34.078C186.193 35.9512 185.575 37.9583 184.956 40.0992C184.338 42.2019 183.758 44.3428 183.216 46.5219C184.531 44.1134 185.794 41.6858 187.005 39.239C188.191 36.8305 189.235 34.5558 190.137 32.4149C191.013 30.2358 191.722 28.2479 192.263 26.451C192.778 24.616 193.036 23.125 193.036 21.9781C193.036 21.8252 193.036 21.6149 193.036 21.3473C193.036 21.1179 192.985 21.0032 192.881 21.0032ZM167.83 67.6823C168.397 67.6823 169.26 67.0707 170.42 65.8473C171.554 64.6239 172.843 62.9991 174.286 60.9729C174.441 59.7496 174.634 58.5262 174.866 57.3028C175.098 56.0412 175.356 54.7796 175.639 53.518C174.608 54.5503 173.603 55.7163 172.624 57.0161C171.644 58.3159 170.781 59.5966 170.034 60.8582C169.286 62.1581 168.68 63.3623 168.216 64.471C167.727 65.5797 167.482 66.4207 167.482 66.9942C167.482 67.453 167.598 67.6823 167.83 67.6823ZM189.634 75.4813C189.351 75.4813 189.015 75.3475 188.629 75.0799C188.216 74.8123 187.83 74.4873 187.469 74.105C187.082 73.6845 186.76 73.2257 186.503 72.7287C186.245 72.2317 186.116 71.7539 186.116 71.2951C186.271 70.1482 186.503 68.8292 186.812 67.3383C187.121 65.8473 187.443 64.3181 187.778 62.7506C188.113 61.2214 188.474 59.7113 188.861 58.2204C189.247 56.7676 189.595 55.4678 189.905 54.3209C190.214 53.174 190.485 52.2373 190.716 51.511C190.923 50.8228 191.064 50.4787 191.142 50.4787C191.245 50.4787 191.515 50.6508 191.954 50.9948C192.366 51.3007 192.804 51.7021 193.268 52.1991C193.732 52.6961 194.157 53.2122 194.544 53.7474C194.905 54.2826 195.085 54.7414 195.085 55.1237C195.085 55.2002 195.072 55.2957 195.046 55.4104C195.046 55.5251 195.021 55.678 194.969 55.8692C194.84 56.5191 194.66 57.2837 194.428 58.163C194.222 59.0805 193.99 60.0172 193.732 60.9729C193.5 61.8905 193.255 62.8271 192.997 63.7829C192.74 64.7386 192.521 65.637 192.34 66.4781C192.134 67.3192 191.979 68.0646 191.876 68.7146C191.747 69.3262 191.683 69.7659 191.683 70.0335C191.683 70.2247 191.735 70.3202 191.838 70.3202C192.018 70.3202 192.314 70.1482 192.727 69.8041C193.113 69.46 193.552 69.0013 194.041 68.4278C194.557 67.8926 195.085 67.3 195.626 66.6501C196.168 66.0002 196.683 65.3503 197.173 64.7004C197.688 64.0505 198.152 63.477 198.564 62.98C198.951 62.4448 199.26 62.0434 199.492 61.7758C199.647 62.0052 199.827 62.311 200.033 62.6933C200.265 63.0756 200.472 63.4197 200.652 63.7255C200.265 64.299 199.789 64.9871 199.222 65.7899C198.629 66.631 197.997 67.4721 197.327 68.3131C196.657 69.1924 195.948 70.0526 195.201 70.8937C194.479 71.773 193.771 72.5567 193.075 73.2448C192.379 73.933 191.735 74.4873 191.142 74.9079C190.549 75.2902 190.046 75.4813 189.634 75.4813ZM200.072 38.4936C200.072 38.6082 200.008 38.8567 199.879 39.239C199.776 39.6596 199.647 40.1375 199.492 40.6727C199.312 41.2079 199.131 41.7622 198.951 42.3357C198.745 42.9474 198.539 43.5017 198.332 43.9987C198.152 44.4957 197.972 44.8971 197.791 45.203C197.611 45.547 197.469 45.7191 197.366 45.7191C197.057 45.6808 196.67 45.5279 196.206 45.2603C195.768 45.0309 195.343 44.7442 194.93 44.4001C194.518 44.0561 194.157 43.7311 193.848 43.4253C193.564 43.1194 193.423 42.9091 193.423 42.7945C193.423 42.221 193.526 41.4946 193.732 40.6153C193.938 39.7743 194.183 38.9332 194.466 38.0921C194.75 37.2511 195.046 36.5438 195.356 35.9704C195.639 35.3587 195.858 35.0528 196.013 35.0528C196.322 35.0528 196.709 35.2058 197.173 35.5116C197.637 35.8174 198.088 36.1615 198.526 36.5438C198.938 36.9261 199.299 37.3084 199.608 37.6907C199.918 38.073 200.072 38.3406 200.072 38.4936ZM214.106 69.9188C214.106 70.0717 214.157 70.1482 214.26 70.1482C214.415 70.1482 214.673 69.9762 215.033 69.6321C215.42 69.288 215.845 68.8484 216.309 68.3131C216.773 67.8161 217.276 67.2427 217.817 66.5928C218.358 65.9429 218.874 65.293 219.363 64.643C219.853 64.0314 220.304 63.4579 220.716 62.9227C221.103 62.3874 221.399 61.986 221.606 61.7184C221.786 61.9478 221.992 62.2536 222.224 62.6359C222.456 63.0565 222.675 63.4197 222.881 63.7255C222.443 64.299 221.928 64.9871 221.335 65.7899C220.742 66.631 220.111 67.4912 219.441 68.3705C218.771 69.2498 218.075 70.1291 217.353 71.0084C216.631 71.8877 215.923 72.6714 215.227 73.3595C214.531 74.0477 213.874 74.602 213.255 75.0225C212.637 75.4431 212.108 75.6533 211.67 75.6533C211.335 75.6533 210.987 75.5578 210.626 75.3666C210.24 75.2137 209.892 74.9652 209.582 74.6211C209.247 74.3153 208.977 73.933 208.771 73.4742C208.564 73.0155 208.461 72.5185 208.461 71.9832C208.461 71.7539 208.461 71.5054 208.461 71.2378C208.436 70.9319 208.448 70.5305 208.5 70.0335C208.526 69.5365 208.59 68.9439 208.693 68.2558C208.796 67.5676 208.951 66.7266 209.157 65.7326C208.59 66.6119 207.907 67.5485 207.108 68.5425C206.335 69.5365 205.523 70.4923 204.673 71.4098C203.796 72.2891 202.92 73.0919 202.044 73.8183C201.168 74.5447 200.369 75.0799 199.647 75.424C199.544 75.4622 199.466 75.4813 199.415 75.4813C199.363 75.4813 199.312 75.4813 199.26 75.4813C199.08 75.4813 198.848 75.3666 198.564 75.1372C198.281 74.8696 197.997 74.5256 197.714 74.105C197.43 73.6463 197.186 73.1493 196.979 72.614C196.773 72.0788 196.67 71.5245 196.67 70.951C196.67 70.7981 196.722 70.282 196.825 69.4027C196.928 68.5234 197.186 67.3956 197.598 66.0193C197.985 64.643 198.564 63.0947 199.338 61.3744C200.111 59.654 201.168 57.8954 202.508 56.0986C203.204 55.1811 203.951 54.3209 204.75 53.518C205.42 52.8299 206.18 52.1417 207.031 51.4536C207.907 50.7272 208.809 50.1538 209.737 49.7332C209.789 49.7332 209.827 49.7332 209.853 49.7332C209.879 49.695 209.918 49.695 209.969 49.7332C210.175 49.8479 210.42 50.02 210.704 50.2494C211.013 50.4787 211.309 50.7081 211.593 50.9375C211.876 51.2051 212.134 51.4536 212.366 51.683C212.572 51.9506 212.714 52.1609 212.791 52.3138C212.817 52.352 212.817 52.3902 212.791 52.4285L212.753 52.4858C211.954 53.1357 211.206 53.843 210.51 54.6076C209.789 55.3722 209.157 56.0986 208.616 56.7867C207.972 57.5896 207.379 58.3733 206.838 59.1379C205.549 61.0494 204.66 62.6933 204.17 64.0696C203.68 65.4076 203.436 66.3825 203.436 66.9942C203.436 67.453 203.564 67.6823 203.822 67.6823C204.054 67.6823 204.363 67.5294 204.75 67.2236C205.137 66.9177 205.562 66.5163 206.026 66.0193C206.515 65.4841 207.044 64.8724 207.611 64.1843C208.178 63.4961 208.771 62.7698 209.389 62.0051C209.93 61.3552 210.459 60.648 210.974 59.8834C211.412 59.2717 211.863 58.5644 212.327 57.7616C212.817 56.9588 213.229 56.1368 213.564 55.2957C213.564 55.2575 213.577 55.2193 213.603 55.1811C213.603 55.1811 213.629 55.1811 213.68 55.1811C213.861 55.4104 214.08 55.7545 214.338 56.2133C214.57 56.7103 214.789 57.2455 214.995 57.8189C215.227 58.3924 215.42 58.9467 215.575 59.482C215.704 60.0172 215.768 60.4377 215.768 60.7436C215.381 61.9669 215.072 63.0756 214.84 64.0696C214.634 65.1018 214.466 65.9811 214.338 66.7075C214.235 67.4721 214.17 68.122 214.144 68.6572C214.119 69.1924 214.106 69.613 214.106 69.9188ZM229.028 54.4356C228.822 55.2766 228.616 56.1177 228.41 56.9588C228.204 57.8381 227.997 58.7365 227.791 59.654C228.899 57.7425 229.853 56.1942 230.652 55.009C231.451 53.8239 232.121 52.8872 232.662 52.1991C233.229 51.5492 233.68 51.0904 234.015 50.8228C234.376 50.5934 234.647 50.4787 234.827 50.4787C235.059 50.4787 235.407 50.6508 235.871 50.9948C236.335 51.3007 236.799 51.7021 237.263 52.1991C237.727 52.6961 238.126 53.2122 238.461 53.7474C238.822 54.2826 239.003 54.7414 239.003 55.1237C239.003 55.2002 238.99 55.2957 238.964 55.4104C238.938 55.5251 238.912 55.678 238.887 55.8692C238.732 56.5191 238.552 57.2837 238.345 58.163C238.113 59.0805 237.881 60.0172 237.649 60.9729C237.392 61.8905 237.147 62.8271 236.915 63.7829C236.657 64.7386 236.425 65.637 236.219 66.4781C236.039 67.3192 235.884 68.0646 235.755 68.7146C235.626 69.3262 235.562 69.7659 235.562 70.0335C235.562 70.2247 235.613 70.3202 235.716 70.3202C235.923 70.3202 236.219 70.1482 236.606 69.8041C236.992 69.46 237.443 69.0013 237.959 68.4278C238.448 67.8926 238.964 67.3 239.505 66.6501C240.046 66.0002 240.575 65.3503 241.09 64.7004C241.58 64.0505 242.031 63.477 242.443 62.98C242.856 62.4448 243.165 62.0434 243.371 61.7758C243.552 62.0052 243.745 62.311 243.951 62.6933C244.157 63.0756 244.363 63.4197 244.57 63.7255C244.183 64.299 243.693 64.9871 243.101 65.7899C242.534 66.631 241.902 67.4721 241.206 68.3131C240.536 69.1924 239.84 70.0526 239.119 70.8937C238.371 71.773 237.662 72.5567 236.992 73.2448C236.296 73.933 235.652 74.4873 235.059 74.9079C234.441 75.2902 233.938 75.4813 233.552 75.4813C233.268 75.4813 232.933 75.3475 232.546 75.0799C232.134 74.8123 231.735 74.4873 231.348 74.105C230.987 73.6845 230.665 73.2257 230.381 72.7287C230.124 72.2317 229.995 71.7539 229.995 71.2951C230.149 70.2247 230.369 69.0013 230.652 67.625C230.91 66.2869 231.206 64.8915 231.541 63.4388C231.851 62.0243 232.173 60.6097 232.508 59.1952C232.869 57.8189 233.204 56.5382 233.513 55.3531L233.474 55.4104C233.139 56.0221 232.649 56.825 232.005 57.8189C231.387 58.7747 230.678 60.0172 229.879 61.5464C229.106 63.0756 228.268 64.9298 227.366 67.1089C226.49 69.2498 225.626 71.7921 224.776 74.7358C224.673 75.1181 224.582 75.424 224.505 75.6533C224.402 75.8445 224.235 75.9401 224.003 75.9401C223.693 75.9401 223.358 75.8063 222.997 75.5387C222.611 75.3093 222.224 74.9843 221.838 74.5638C221.425 74.1815 221.026 73.7418 220.639 73.2448C220.227 72.7478 219.866 72.2509 219.557 71.7539C219.557 71.6009 219.608 71.1613 219.711 70.4349C219.814 69.6703 219.943 68.7337 220.098 67.625C220.278 66.5163 220.51 65.2547 220.794 63.8402C221.052 62.4257 221.348 60.9347 221.683 59.3673C222.018 57.7998 222.379 56.1942 222.765 54.5503C223.178 52.9064 223.603 51.3389 224.041 49.8479C224.789 50.3449 225.613 50.9757 226.515 51.7403C227.418 52.5049 228.255 53.4033 229.028 54.4356ZM270.278 70.0335C270.536 70.0335 270.884 69.8806 271.322 69.5747C271.76 69.2307 272.25 68.791 272.791 68.2558C273.332 67.7206 273.887 67.1471 274.454 66.5354C275.021 65.8855 275.562 65.2547 276.077 64.643C276.593 64.0314 277.057 63.4579 277.469 62.9227C277.881 62.4257 278.191 62.0434 278.397 61.7758C278.552 62.0052 278.732 62.311 278.938 62.6933C279.17 63.0756 279.389 63.4197 279.595 63.7255C279.183 64.299 278.693 64.9871 278.126 65.7899C277.534 66.5545 276.902 67.3574 276.232 68.1984C275.562 69.0395 274.866 69.8615 274.144 70.6643C273.423 71.5054 272.727 72.2509 272.057 72.9008C271.361 73.5507 270.716 74.0668 270.124 74.4491C269.531 74.8314 269.028 75.0225 268.616 75.0225C268.281 75.0225 267.881 74.9079 267.418 74.6785C266.979 74.4109 266.554 74.0859 266.142 73.7036C265.729 73.3213 265.381 72.9008 265.098 72.442C264.789 72.0215 264.634 71.5818 264.634 71.1231C264.66 70.0144 264.802 68.7146 265.059 67.2236C265.317 65.7326 265.626 64.2034 265.987 62.6359C266.348 61.0685 266.747 59.5202 267.186 57.991C267.598 56.4618 267.972 55.0855 268.307 53.8621C268.178 53.9003 267.907 54.1871 267.495 54.7223C267.082 55.2575 266.593 55.9648 266.026 56.8441C265.459 57.7616 264.84 58.8512 264.17 60.1128C263.474 61.3743 262.804 62.7889 262.16 64.3563C261.49 65.9237 260.858 67.625 260.265 69.4601C259.673 71.2569 259.17 73.1684 258.758 75.1946C258.706 75.5004 258.629 75.7107 258.526 75.8254C258.423 75.9401 258.255 75.9974 258.023 75.9974C257.869 75.9974 257.624 75.8827 257.289 75.6533C256.954 75.424 256.606 75.1563 256.245 74.8505C255.884 74.5064 255.523 74.1433 255.162 73.761C254.802 73.4169 254.518 73.0919 254.312 72.7861C254.209 72.6332 254.119 72.4611 254.041 72.27C253.964 72.1171 253.925 71.8877 253.925 71.5818C253.925 69.8615 254.119 67.7397 254.505 65.2165C254.918 62.7315 255.459 60.0172 256.129 57.0735C256.799 54.1297 257.585 51.0522 258.487 47.8408C259.415 44.6295 260.394 41.4946 261.425 38.4362C262.456 35.3396 263.526 32.3958 264.634 29.605C265.742 26.8524 266.838 24.4057 267.92 22.2648C269.003 20.1239 270.046 18.4036 271.052 17.1037C272.057 15.8039 272.972 15.1158 273.796 15.0393C274.209 15.2305 274.621 15.5172 275.033 15.8995C275.446 16.32 275.832 16.7597 276.193 17.2184C276.554 17.6772 276.889 18.136 277.198 18.5947C277.482 19.0535 277.701 19.4358 277.856 19.7416C277.959 19.9328 278.036 20.1813 278.088 20.4871C278.113 20.7547 278.126 20.965 278.126 21.1179C278.126 22.0354 277.946 23.1823 277.585 24.5586C277.25 25.9732 276.76 27.5406 276.116 29.261C275.472 30.9813 274.698 32.8355 273.796 34.8235C272.894 36.7732 271.889 38.7994 270.781 40.9021C269.673 42.9665 268.487 45.05 267.224 47.1527C265.936 49.2936 264.595 51.358 263.204 53.346C262.869 54.7223 262.559 56.0795 262.276 57.4175C263.229 55.9648 264.093 54.7414 264.866 53.7474C265.665 52.7534 266.374 51.9697 266.992 51.3963C267.611 50.7846 268.139 50.364 268.577 50.1347C269.015 49.8671 269.338 49.7332 269.544 49.7332C269.724 49.7332 270.008 49.8862 270.394 50.192C270.807 50.4979 271.232 50.861 271.67 51.2816C272.108 51.7021 272.521 52.1418 272.907 52.6005C273.268 53.021 273.487 53.3842 273.564 53.6901C273.616 53.8048 273.616 53.9768 273.564 54.2062C273.539 54.4356 273.513 54.6076 273.487 54.7223C273.307 55.4487 273.113 56.2706 272.907 57.1881C272.675 58.1057 272.43 59.0805 272.173 60.1128C271.941 61.145 271.696 62.1963 271.438 63.2668C271.18 64.299 270.961 65.2547 270.781 66.134C270.575 67.0133 270.42 67.7779 270.317 68.4278C270.188 69.116 270.124 69.5747 270.124 69.8041C270.124 69.957 270.175 70.0335 270.278 70.0335ZM267.959 36.3718C267.521 37.6716 267.108 38.9905 266.722 40.3286C266.335 41.6284 265.948 42.9474 265.562 44.2854C266.747 42.0681 267.894 39.7934 269.003 37.4613C270.111 35.1675 271.103 32.9502 271.979 30.8093C272.856 28.6684 273.552 26.6995 274.067 24.9027C274.608 23.1059 274.879 21.5958 274.879 20.3724C274.879 19.799 274.802 19.5122 274.647 19.5122C274.441 19.5122 274.119 19.9328 273.68 20.7738C273.268 21.6149 272.753 22.7809 272.134 24.2719C271.541 25.7629 270.884 27.5406 270.162 29.605C269.466 31.6695 268.732 33.925 267.959 36.3718ZM281.49 69.3454C281.49 70.1482 281.683 70.5496 282.07 70.5496C282.456 70.5496 282.985 70.0717 283.655 69.116C284.325 68.1602 285.021 66.9369 285.742 65.4459C285.716 65.1783 285.704 64.9298 285.704 64.7004C285.678 64.471 285.665 64.2799 285.665 64.1269C285.665 63.5917 285.704 62.9609 285.781 62.2345C285.884 61.5082 286.09 60.6862 286.399 59.7687C286.606 59.0805 286.863 58.3924 287.173 57.7042C287.405 57.0926 287.701 56.4426 288.062 55.7545C288.423 55.0664 288.809 54.4165 289.222 53.8048L289.376 53.5754C289.557 53.9195 289.789 54.3591 290.072 54.8943C290.381 55.4296 290.678 55.9648 290.961 56.5C291.245 57.0734 291.503 57.5896 291.735 58.0483C291.941 58.5453 292.07 58.8703 292.121 59.0232C292.121 60.1701 291.992 61.2979 291.735 62.4066C291.451 63.5535 291.077 64.6622 290.613 65.7326C291.67 65.6561 292.649 65.2547 293.552 64.5283C294.479 63.8402 295.433 62.7124 296.412 61.145C296.567 61.3744 296.773 61.6993 297.031 62.1198C297.289 62.5404 297.495 62.8844 297.649 63.1521C296.902 64.299 296.18 65.2547 295.485 66.0193C294.763 66.7839 294.041 67.3765 293.32 67.797C292.624 68.2558 291.902 68.5807 291.155 68.7719C290.407 68.9631 289.647 69.0586 288.874 69.0586C288.281 70.0144 287.637 70.8746 286.941 71.6392C286.271 72.442 285.575 73.1302 284.853 73.7036C284.131 74.2771 283.423 74.7167 282.727 75.0225C282.031 75.3284 281.361 75.4813 280.716 75.4813C280.175 75.4813 279.634 75.2519 279.093 74.7932C278.526 74.3344 278.01 73.7609 277.546 73.0728C277.082 72.3847 276.696 71.6392 276.387 70.8363C276.103 70.0717 275.961 69.3836 275.961 68.7719C275.961 66.7839 276.142 64.8151 276.503 62.8653C276.863 60.8774 277.43 59.0423 278.204 57.3602C278.951 55.6398 279.918 54.1297 281.103 52.8299C282.314 51.4918 283.732 50.4978 285.356 49.8479C285.407 49.7715 285.497 49.7332 285.626 49.7332C285.781 49.695 285.897 49.6759 285.974 49.6759C286.232 49.6759 286.49 49.8097 286.747 50.0773C287.031 50.3449 287.289 50.6508 287.521 50.9948C287.753 51.3389 287.946 51.683 288.101 52.0271C288.255 52.3329 288.332 52.5432 288.332 52.6579C288.307 52.7725 288.178 52.9255 287.946 53.1166C287.714 53.346 287.405 53.6901 287.018 54.1488C286.631 54.6076 286.18 55.2766 285.665 56.1559C285.124 57.0352 284.544 58.2012 283.925 59.654C282.972 61.7567 282.327 63.6682 281.992 65.3885C281.657 67.1089 281.49 68.4278 281.49 69.3454ZM309.827 69.9188C309.827 70.0717 309.879 70.1482 309.982 70.1482C310.188 70.1482 310.485 69.9762 310.871 69.6321C311.283 69.288 311.735 68.8484 312.224 68.3131C312.74 67.8161 313.281 67.2427 313.848 66.5928C314.415 65.9429 314.956 65.293 315.472 64.643C315.987 64.0314 316.451 63.477 316.863 62.98C317.276 62.4448 317.585 62.0434 317.791 61.7758C317.946 62.0052 318.139 62.311 318.371 62.6933C318.577 63.0756 318.784 63.4197 318.99 63.7255C318.603 64.299 318.113 64.9871 317.521 65.7899C316.928 66.5928 316.284 67.4338 315.588 68.3131C314.892 69.1924 314.17 70.0526 313.423 70.8937C312.675 71.7347 311.941 72.4994 311.219 73.1875C310.523 73.8374 309.866 74.3726 309.247 74.7932C308.629 75.2137 308.126 75.424 307.74 75.424C307.43 75.424 307.095 75.2902 306.735 75.0225C306.348 74.7549 306 74.3917 305.691 73.933C305.356 73.5124 305.072 73.0537 304.84 72.5567C304.634 72.0215 304.531 71.5245 304.531 71.0657C304.531 70.6452 304.634 69.8423 304.84 68.6572C305.046 67.4721 305.304 66.0958 305.613 64.5283C304.814 66.134 304.041 67.5485 303.294 68.7719C302.521 69.957 301.825 70.9893 301.206 71.8686C300.562 72.7096 300.008 73.3978 299.544 73.933C299.054 74.4682 298.693 74.8696 298.461 75.1372C298.332 75.2519 298.165 75.3475 297.959 75.424C297.778 75.4622 297.611 75.4813 297.456 75.4813C297.121 75.4813 296.747 75.3475 296.335 75.0799C295.923 74.7741 295.549 74.3917 295.214 73.933C294.879 73.5124 294.582 73.0155 294.325 72.442C294.093 71.9068 293.977 71.3907 293.977 70.8937C293.977 70.3202 294.106 69.3645 294.363 68.0264C294.621 66.6884 294.969 65.1018 295.407 63.2668C295.82 61.3935 296.322 59.3099 296.915 57.0161C297.508 54.7223 298.126 52.2947 298.771 49.7332C298.822 49.6186 298.861 49.5612 298.887 49.5612C298.912 49.5994 298.964 49.6186 299.041 49.6186C299.376 49.695 299.827 49.8862 300.394 50.192C300.987 50.5361 301.554 50.8993 302.095 51.2816C302.662 51.6639 303.152 52.0271 303.564 52.3711C303.951 52.7534 304.144 53.0019 304.144 53.1166C304.093 53.3078 303.964 53.7474 303.758 54.4356C303.526 55.0855 303.268 55.8883 302.985 56.8441C302.701 57.7998 302.392 58.832 302.057 59.9407C301.722 61.0494 301.425 62.1198 301.168 63.1521C300.884 64.1843 300.652 65.1018 300.472 65.9046C300.291 66.7457 300.201 67.3574 300.201 67.7397C300.201 67.8544 300.24 67.9117 300.317 67.9117C300.472 67.9117 300.781 67.625 301.245 67.0515C301.735 66.4781 302.327 65.5988 303.023 64.4137C303.719 63.2285 304.505 61.6802 305.381 59.7687C306.258 57.8572 307.173 55.5825 308.126 52.9446L308.861 49.8479C308.912 49.6186 309.028 49.5039 309.209 49.5039C309.338 49.5039 309.608 49.6759 310.021 50.02C310.433 50.4023 310.871 50.8228 311.335 51.2816C311.799 51.7403 312.211 52.1991 312.572 52.6579C312.959 53.1166 313.165 53.4225 313.191 53.5754C313.191 53.6518 313.178 53.8048 313.152 54.0341C313.152 54.2253 313.126 54.3782 313.075 54.4929C312.894 55.2193 312.701 56.0412 312.495 56.9588C312.263 57.9145 312.018 58.9085 311.76 59.9407C311.528 60.9729 311.296 62.0243 311.064 63.0947C310.832 64.1269 310.626 65.1018 310.446 66.0193C310.265 66.8986 310.124 67.6823 310.021 68.3705C309.892 69.0969 309.827 69.613 309.827 69.9188ZM317.25 62.5213C317.637 61.9478 318.101 61.2979 318.642 60.5715C319.157 59.8451 319.673 59.0423 320.188 58.163C320.704 57.3219 321.18 56.4044 321.619 55.4104C322.082 54.4165 322.443 53.346 322.701 52.1991C322.778 51.5874 322.894 50.9566 323.049 50.3067C323.178 49.6186 323.345 49.0069 323.552 48.4716C323.732 47.8982 323.912 47.4394 324.093 47.0954C324.273 46.7131 324.428 46.5219 324.557 46.5219C324.763 46.7131 325.085 47.0571 325.523 47.5541C325.936 48.0893 326.348 48.6437 326.76 49.2171C327.198 49.7906 327.572 50.3067 327.881 50.7655C328.216 51.2625 328.384 51.5683 328.384 51.683C328.178 52.8681 328.075 53.9577 328.075 54.9517C328.101 55.9074 328.152 56.8441 328.229 57.7616C328.332 58.7174 328.448 59.7305 328.577 60.8009C328.68 61.8331 328.732 63.0565 328.732 64.471C328.732 65.3121 328.642 66.2678 328.461 67.3383C328.281 68.4087 327.959 69.3836 327.495 70.2629C328.397 69.46 329.286 68.5808 330.162 67.625C331.039 66.631 331.825 65.7135 332.521 64.8724C333.32 63.8402 334.093 62.808 334.84 61.7758L336.039 63.7255C335.446 64.5283 334.814 65.3885 334.144 66.306C333.448 67.2236 332.74 68.122 332.018 69.0013C331.296 69.8806 330.549 70.7216 329.776 71.5245C329.028 72.3655 328.281 73.0919 327.534 73.7036C326.812 74.3153 326.103 74.8123 325.407 75.1946C324.711 75.5769 324.067 75.768 323.474 75.768C322.959 75.768 322.392 75.5769 321.773 75.1946C321.155 74.8123 320.575 74.3726 320.033 73.8756C319.492 73.3404 319.015 72.7861 318.603 72.2126C318.191 71.6392 317.959 71.1613 317.907 70.779C317.907 70.7025 317.933 70.5878 317.985 70.4349C318.062 70.282 318.152 70.11 318.255 69.9188C318.358 69.7277 318.448 69.5556 318.526 69.4027C318.629 69.2498 318.706 69.1733 318.758 69.1733C318.861 69.1733 319.08 69.3071 319.415 69.5747C319.724 69.8041 320.253 69.9188 321 69.9188C321.387 69.9188 321.735 69.7659 322.044 69.4601C322.327 69.116 322.572 68.6954 322.778 68.1984C322.959 67.6632 323.088 67.0515 323.165 66.3634C323.268 65.6753 323.32 64.968 323.32 64.2416C323.32 63.1329 323.281 62.0625 323.204 61.0303C323.126 59.9981 323.049 59.0041 322.972 58.0483C322.662 58.5453 322.314 59.0805 321.928 59.654C321.541 60.2274 321.155 60.8009 320.768 61.3744C320.381 61.9478 319.982 62.5021 319.57 63.0374C319.183 63.5726 318.822 64.0505 318.487 64.471L317.25 62.5213ZM336.503 75.4813C336.245 75.4813 335.91 75.3475 335.497 75.0799C335.085 74.8123 334.698 74.4873 334.338 74.105C333.977 73.6845 333.655 73.2257 333.371 72.7287C333.113 72.2317 332.985 71.7539 332.985 71.2951C333.165 70.1482 333.41 68.8292 333.719 67.3383C334.003 65.8473 334.312 64.3181 334.647 62.7506C335.008 61.2214 335.369 59.7113 335.729 58.2204C336.116 56.7676 336.464 55.4678 336.773 54.3209C337.082 53.174 337.353 52.2373 337.585 51.511C337.817 50.8228 337.972 50.4787 338.049 50.4787C338.152 50.4787 338.41 50.6508 338.822 50.9948C339.26 51.3007 339.711 51.7021 340.175 52.1991C340.639 52.6961 341.052 53.2122 341.412 53.7474C341.773 54.2826 341.954 54.7414 341.954 55.1237C341.954 55.2002 341.954 55.2957 341.954 55.4104C341.928 55.5251 341.902 55.678 341.876 55.8692C341.722 56.5191 341.541 57.2837 341.335 58.163C341.103 59.0805 340.871 60.0172 340.639 60.9729C340.381 61.8905 340.124 62.8271 339.866 63.7829C339.634 64.7386 339.415 65.637 339.209 66.4781C339.028 67.3192 338.874 68.0646 338.745 68.7146C338.616 69.3262 338.552 69.7659 338.552 70.0335C338.552 70.2247 338.603 70.3202 338.706 70.3202C338.912 70.3202 339.209 70.1482 339.595 69.8041C339.982 69.46 340.42 69.0013 340.91 68.4278C341.425 67.8926 341.954 67.3 342.495 66.6501C343.036 66.0002 343.564 65.3503 344.08 64.7004C344.57 64.0505 345.021 63.477 345.433 62.98C345.845 62.4448 346.155 62.0434 346.361 61.7758C346.515 62.0052 346.709 62.311 346.941 62.6933C347.147 63.0756 347.353 63.4197 347.559 63.7255C347.173 64.299 346.683 64.9871 346.09 65.7899C345.523 66.631 344.892 67.4721 344.196 68.3131C343.526 69.1924 342.83 70.0526 342.108 70.8937C341.361 71.773 340.652 72.5567 339.982 73.2448C339.286 73.933 338.642 74.4873 338.049 74.9079C337.43 75.2902 336.915 75.4813 336.503 75.4813ZM346.979 38.4936C346.954 38.6082 346.889 38.8567 346.786 39.239C346.657 39.6596 346.515 40.1375 346.361 40.6727C346.206 41.2079 346.026 41.7622 345.82 42.3357C345.613 42.9474 345.42 43.5017 345.24 43.9987C345.033 44.4957 344.84 44.8971 344.66 45.203C344.479 45.547 344.338 45.7191 344.235 45.7191C343.925 45.6808 343.552 45.5279 343.113 45.2603C342.649 45.0309 342.211 44.7442 341.799 44.4001C341.387 44.0561 341.039 43.7311 340.755 43.4253C340.446 43.1194 340.291 42.9091 340.291 42.7945C340.291 42.221 340.407 41.4946 340.639 40.6153C340.845 39.7743 341.09 38.9332 341.374 38.0921C341.657 37.2511 341.941 36.5438 342.224 35.9704C342.508 35.3587 342.727 35.0528 342.881 35.0528C343.216 35.0528 343.603 35.2058 344.041 35.5116C344.505 35.8174 344.956 36.1615 345.394 36.5438C345.832 36.9261 346.206 37.3084 346.515 37.6907C346.825 38.073 346.979 38.3406 346.979 38.4936ZM353.59 54.4356C353.358 55.2766 353.139 56.1177 352.933 56.9588C352.727 57.8381 352.521 58.7365 352.314 59.654C353.423 57.7425 354.376 56.1942 355.175 55.009C355.974 53.8239 356.657 52.8872 357.224 52.1991C357.765 51.5492 358.204 51.0904 358.539 50.8228C358.899 50.5934 359.17 50.4787 359.35 50.4787C359.582 50.4787 359.93 50.6508 360.394 50.9948C360.858 51.3007 361.322 51.7021 361.786 52.1991C362.25 52.6961 362.649 53.2122 362.985 53.7474C363.345 54.2826 363.526 54.7414 363.526 55.1237C363.526 55.2002 363.513 55.2957 363.487 55.4104C363.461 55.5251 363.436 55.678 363.41 55.8692C363.255 56.5191 363.075 57.2837 362.869 58.163C362.637 59.0805 362.405 60.0172 362.173 60.9729C361.915 61.8905 361.67 62.8271 361.438 63.7829C361.18 64.7386 360.961 65.637 360.781 66.4781C360.575 67.3192 360.407 68.0646 360.278 68.7146C360.149 69.3262 360.085 69.7659 360.085 70.0335C360.085 70.2247 360.149 70.3202 360.278 70.3202C360.459 70.3202 360.742 70.1482 361.129 69.8041C361.515 69.46 361.966 69.0013 362.482 68.4278C362.972 67.8926 363.487 67.3 364.028 66.6501C364.57 66.0002 365.098 65.3503 365.613 64.7004C366.103 64.0505 366.554 63.477 366.966 62.98C367.379 62.4448 367.688 62.0434 367.894 61.7758C368.075 62.0052 368.268 62.311 368.474 62.6933C368.68 63.0756 368.887 63.4197 369.093 63.7255C368.706 64.299 368.217 64.9871 367.624 65.7899C367.057 66.631 366.425 67.4721 365.729 68.3131C365.059 69.1924 364.363 70.0526 363.642 70.8937C362.894 71.773 362.186 72.5567 361.515 73.2448C360.82 73.933 360.175 74.4873 359.582 74.9079C358.99 75.2902 358.487 75.4813 358.075 75.4813C357.817 75.4813 357.482 75.3475 357.07 75.0799C356.657 74.8123 356.258 74.4873 355.871 74.105C355.51 73.6845 355.188 73.2257 354.905 72.7287C354.647 72.2317 354.518 71.7539 354.518 71.2951C354.673 70.2247 354.892 69.0013 355.175 67.625C355.459 66.2869 355.755 64.8915 356.064 63.4388C356.374 62.0243 356.696 60.6097 357.031 59.1952C357.392 57.8189 357.727 56.5382 358.036 55.3531L357.997 55.4104C357.662 56.0221 357.173 56.825 356.528 57.8189C355.91 58.7747 355.201 60.0172 354.402 61.5464C353.629 63.0756 352.804 64.9298 351.928 67.1089C351.026 69.2498 350.162 71.7921 349.338 74.7358C349.209 75.1181 349.106 75.424 349.028 75.6533C348.951 75.8445 348.784 75.9401 348.526 75.9401C348.216 75.9401 347.881 75.8063 347.521 75.5387C347.134 75.3093 346.747 74.9843 346.361 74.5638C345.948 74.1815 345.549 73.7418 345.162 73.2448C344.75 72.7478 344.389 72.2509 344.08 71.7539C344.08 71.6009 344.131 71.1613 344.235 70.4349C344.338 69.6703 344.479 68.7337 344.66 67.625C344.814 66.5163 345.033 65.2547 345.317 63.8402C345.575 62.4257 345.871 60.9347 346.206 59.3673C346.541 57.7998 346.902 56.1942 347.289 54.5503C347.701 52.9064 348.126 51.3389 348.564 49.8479C349.312 50.3449 350.137 50.9757 351.039 51.7403C351.941 52.5049 352.791 53.4033 353.59 54.4356ZM388.577 61.6037L389.737 63.7255C388.242 66.0193 386.722 68.122 385.175 70.0335C383.655 71.945 382.147 73.7418 380.652 75.424C380.369 76.6473 380.072 77.8707 379.763 79.0941C379.428 80.3174 379.08 81.5599 378.719 82.8215C378.229 84.5419 377.637 86.2049 376.941 87.8106C376.271 89.378 375.549 90.8307 374.776 92.1688C374.028 93.5451 373.255 94.7685 372.456 95.8389C371.683 96.9094 370.923 97.8269 370.175 98.5915C369.454 99.3561 368.784 99.9487 368.165 100.369C367.521 100.79 366.979 101 366.541 101C366.258 101 365.91 100.809 365.497 100.427C365.085 100.006 364.698 99.509 364.338 98.9356C363.977 98.3621 363.668 97.7122 363.41 96.9858C363.152 96.2977 363.023 95.6478 363.023 95.0361C363.023 93.6598 363.345 92.3217 363.99 91.0219C364.608 89.7221 365.472 88.384 366.58 87.0077C367.662 85.6314 368.951 84.1787 370.446 82.6495C371.915 81.1203 373.513 79.4573 375.24 77.6604C375.626 76.1695 376.064 74.3918 376.554 72.3273C377.044 70.3011 377.624 67.7779 378.294 64.7577C377.649 66.0576 376.902 67.3383 376.052 68.5999C375.201 69.8997 374.338 71.0466 373.461 72.0406C372.559 73.0346 371.657 73.8374 370.755 74.4491C369.879 75.0608 369.067 75.3666 368.32 75.3666C368.113 75.3666 367.869 75.2328 367.585 74.9652C367.276 74.6594 366.967 74.2962 366.657 73.8756C366.348 73.4169 366.077 72.8817 365.845 72.27C365.639 71.6965 365.536 71.0657 365.536 70.3776C365.536 69.4983 365.665 68.4661 365.923 67.2809C366.206 66.0576 366.619 64.7577 367.16 63.3814C367.701 62.0434 368.358 60.6671 369.131 59.2526C369.905 57.8381 370.768 56.5 371.722 55.2384C372.675 54.015 373.719 52.9064 374.853 51.9124C375.987 50.9566 377.198 50.2111 378.487 49.6759C378.693 49.6759 378.964 49.7906 379.299 50.02C379.66 50.2494 380.008 50.4978 380.343 50.7655C380.704 51.0331 381.013 51.3007 381.271 51.5683C381.528 51.8359 381.657 52.0079 381.657 52.0844C381.657 52.1226 381.619 52.18 381.541 52.2564C381.515 52.2947 381.49 52.3138 381.464 52.3138C381.077 52.6579 380.562 53.1549 379.918 53.8048C379.299 54.4929 378.629 55.2384 377.907 56.0412C377.211 56.8823 376.503 57.7616 375.781 58.6791C375.085 59.6349 374.454 60.5715 373.887 61.489C373.32 62.4066 372.856 63.305 372.495 64.1843C372.134 65.0253 371.954 65.7899 371.954 66.4781C371.954 66.7075 371.992 66.8986 372.07 67.0515C372.173 67.2427 372.302 67.3383 372.456 67.3383C372.894 67.3383 373.384 67.1089 373.925 66.6501C374.492 66.1914 375.059 65.5988 375.626 64.8724C376.219 64.1078 376.799 63.2859 377.366 62.4066C377.959 61.489 378.513 60.5906 379.028 59.7113C379.544 58.832 380.008 58.0292 380.42 57.3028C380.832 56.5382 381.155 55.9074 381.387 55.4104C381.412 55.3722 381.438 55.334 381.464 55.2957C381.49 55.2193 381.528 55.1619 381.58 55.1237C381.735 55.1619 381.928 55.4296 382.16 55.9265C382.392 56.3853 382.624 56.9205 382.856 57.5322C383.088 58.1439 383.281 58.7556 383.436 59.3673C383.616 59.9789 383.706 60.3995 383.706 60.6289V60.7436C383.706 60.7436 383.693 60.8391 383.668 61.0303C383.461 61.9096 383.204 63.1903 382.894 64.8724C382.611 66.5163 382.237 68.4087 381.773 70.5496C382.907 69.2115 384.041 67.8161 385.175 66.3634C386.309 64.8724 387.443 63.2859 388.577 61.6037ZM366.155 95.7242C366.515 95.7242 367.018 95.3228 367.662 94.52C368.332 93.7554 369.041 92.7423 369.789 91.4807C370.51 90.2573 371.232 88.881 371.954 87.3518C372.675 85.8608 373.268 84.4081 373.732 82.9935C372.598 84.2169 371.554 85.3829 370.601 86.4916C369.647 87.5621 368.835 88.6134 368.165 89.6456C367.469 90.6396 366.941 91.6145 366.58 92.5702C366.193 93.526 366 94.4817 366 95.4375C366 95.6287 366.052 95.7242 366.155 95.7242ZM400.098 62.5213C400.485 61.9478 400.948 61.2979 401.49 60.5715C402.005 59.8451 402.521 59.0423 403.036 58.163C403.552 57.3219 404.041 56.4044 404.505 55.4104C404.943 54.4165 405.291 53.346 405.549 52.1991C405.626 51.5874 405.742 50.9566 405.897 50.3067C406.052 49.6186 406.219 49.0069 406.399 48.4716C406.58 47.8982 406.76 47.4394 406.941 47.0954C407.121 46.7131 407.276 46.5219 407.405 46.5219C407.611 46.7131 407.933 47.0571 408.371 47.5541C408.783 48.0893 409.196 48.6437 409.608 49.2171C410.046 49.7906 410.433 50.3067 410.768 50.7655C411.077 51.2625 411.232 51.5683 411.232 51.683C411.026 52.8681 410.923 53.9577 410.923 54.9517C410.948 55.9074 411 56.8441 411.077 57.7616C411.18 58.7174 411.296 59.7305 411.425 60.8009C411.528 61.8331 411.58 63.0565 411.58 64.471C411.58 65.3121 411.49 66.2678 411.309 67.3383C411.129 68.4087 410.807 69.3836 410.343 70.2629C411.245 69.46 412.134 68.5808 413.01 67.625C413.887 66.631 414.673 65.7135 415.369 64.8724C416.168 63.8402 416.941 62.808 417.688 61.7758L418.887 63.7255C418.294 64.5283 417.662 65.3885 416.992 66.306C416.322 67.2236 415.613 68.122 414.866 69.0013C414.144 69.8806 413.397 70.7216 412.624 71.5245C411.876 72.3655 411.129 73.0919 410.381 73.7036C409.66 74.3153 408.951 74.8123 408.255 75.1946C407.559 75.5769 406.915 75.768 406.322 75.768C405.807 75.768 405.24 75.5769 404.621 75.1946C404.003 74.8123 403.423 74.3726 402.881 73.8756C402.34 73.3404 401.863 72.7861 401.451 72.2126C401.064 71.6392 400.832 71.1613 400.755 70.779C400.755 70.7025 400.794 70.5878 400.871 70.4349C400.923 70.282 401 70.11 401.103 69.9188C401.206 69.7277 401.309 69.5556 401.412 69.4027C401.49 69.2498 401.554 69.1733 401.606 69.1733C401.709 69.1733 401.928 69.3071 402.263 69.5747C402.572 69.8041 403.101 69.9188 403.848 69.9188C404.235 69.9188 404.582 69.7659 404.892 69.4601C405.175 69.116 405.42 68.6954 405.626 68.1984C405.807 67.6632 405.948 67.0515 406.052 66.3634C406.129 65.6753 406.168 64.968 406.168 64.2416C406.168 63.1329 406.129 62.0625 406.052 61.0303C405.974 59.9981 405.897 59.0041 405.82 58.0483C405.51 58.5453 405.162 59.0805 404.776 59.654C404.389 60.2274 404.003 60.8009 403.616 61.3744C403.229 61.9478 402.83 62.5021 402.418 63.0374C402.031 63.5726 401.683 64.0505 401.374 64.471L400.098 62.5213ZM434.698 61.7758L435.974 63.7255C434.351 66.0576 432.817 68.0264 431.374 69.6321C429.956 71.2377 428.59 72.5185 427.276 73.4742C425.987 74.43 424.737 75.1181 423.526 75.5387C422.34 75.9592 421.18 76.1695 420.046 76.1695C419.582 76.1695 419.054 75.9018 418.461 75.3666C417.894 74.8696 417.353 74.2388 416.838 73.4742C416.348 72.7478 415.936 71.9832 415.601 71.1804C415.265 70.3393 415.098 69.6321 415.098 69.0586C415.098 66.9177 415.291 64.9489 415.678 63.1521C416.09 61.3935 416.619 59.7878 417.263 58.335C417.907 56.8823 418.655 55.6207 419.505 54.5503C420.33 53.4416 421.193 52.5241 422.095 51.7977C423.023 51.0713 423.938 50.517 424.84 50.1347C425.716 49.7906 426.541 49.6186 427.314 49.6186C427.856 49.6186 428.397 49.8479 428.938 50.3067C429.479 50.7655 429.969 51.3389 430.407 52.0271C430.845 52.7152 431.193 53.4225 431.451 54.1488C431.735 54.9134 431.876 55.5634 431.876 56.0986C431.876 56.9779 431.631 57.8954 431.142 58.8512C430.626 59.7687 429.918 60.7053 429.015 61.6611C428.088 62.6168 426.979 63.6108 425.691 64.643C424.402 65.637 422.985 66.6501 421.438 67.6823C421.387 68.294 421.361 68.9057 421.361 69.5174C421.361 70.3202 421.477 70.8746 421.709 71.1804C421.941 71.448 422.392 71.5818 423.062 71.5818C424.222 71.5818 425.317 71.2951 426.348 70.7216C427.379 70.1482 428.371 69.4027 429.325 68.4852C430.278 67.5677 431.193 66.5163 432.07 65.3312C432.946 64.1843 433.822 62.9991 434.698 61.7758ZM426.657 53.9195C426.322 53.9195 425.936 54.2062 425.497 54.7796C425.085 55.3149 424.673 56.0412 424.26 56.9588C423.822 57.8763 423.41 58.9276 423.023 60.1128C422.637 61.2979 422.302 62.5404 422.018 63.8402C422.662 63.1903 423.307 62.5213 423.951 61.8331C424.57 61.1067 425.124 60.3612 425.613 59.5966C426.103 58.832 426.503 58.0483 426.812 57.2455C427.095 56.4427 427.237 55.6398 427.237 54.837C427.237 54.5694 427.198 54.3591 427.121 54.2062C427.018 54.015 426.863 53.9195 426.657 53.9195ZM446.644 57.1308C446.412 58.163 446.129 59.329 445.794 60.6289C445.459 61.9287 445.124 63.2094 444.789 64.471C444.479 65.7326 444.209 66.8604 443.977 67.8544C443.771 68.8866 443.668 69.613 443.668 70.0335C443.668 70.2247 443.719 70.3202 443.822 70.3202C444.028 70.3202 444.325 70.1482 444.711 69.8041C445.098 69.46 445.536 69.0013 446.026 68.4278C446.541 67.8926 447.07 67.3 447.611 66.6501C448.152 66.0002 448.668 65.3503 449.157 64.7004C449.673 64.0505 450.137 63.477 450.549 62.98C450.936 62.4448 451.245 62.0434 451.477 61.7758C451.631 62.0052 451.812 62.311 452.018 62.6933C452.25 63.0756 452.456 63.4197 452.637 63.7255C452.25 64.299 451.773 64.9871 451.206 65.7899C450.613 66.631 449.982 67.4721 449.312 68.3131C448.642 69.1924 447.933 70.0526 447.186 70.8937C446.464 71.773 445.755 72.5567 445.059 73.2448C444.363 73.933 443.719 74.4873 443.126 74.9079C442.508 75.2902 442.005 75.4813 441.619 75.4813C441.335 75.4813 441 75.3475 440.613 75.0799C440.201 74.8123 439.814 74.4873 439.454 74.105C439.067 73.6845 438.745 73.2257 438.487 72.7287C438.229 72.2317 438.101 71.7539 438.101 71.2951C438.358 69.5365 438.616 68.0073 438.874 66.7075C439.131 65.3694 439.376 64.2416 439.608 63.3241C439.84 62.4066 440.046 61.6611 440.227 61.0876C440.407 60.5142 440.536 60.0745 440.613 59.7687C440.407 59.654 440.214 59.5202 440.033 59.3673C439.827 59.2143 439.634 59.0614 439.454 58.9085C439.17 59.329 438.848 59.7878 438.487 60.2848C438.152 60.7818 437.804 61.2788 437.443 61.7758C437.108 62.2728 436.76 62.7698 436.399 63.2668C436.039 63.7255 435.716 64.146 435.433 64.5283L434.196 62.6359C434.634 61.9478 435.175 61.145 435.82 60.2274C436.464 59.3099 437.095 58.3733 437.714 57.4175C437.276 57.0352 436.876 56.672 436.515 56.328C436.18 55.9839 435.884 55.6589 435.626 55.3531C435.343 55.0472 435.085 54.7605 434.853 54.4929C434.75 54.4165 434.698 54.2444 434.698 53.9768C434.698 53.7092 434.763 53.3078 434.892 52.7725C435.046 52.2373 435.24 51.6639 435.472 51.0522C435.704 50.4405 435.948 49.8097 436.206 49.1598C436.464 48.5099 436.722 47.9173 436.979 47.3821C437.237 46.8851 437.456 46.4646 437.637 46.1205C437.817 45.8146 437.933 45.6617 437.985 45.6617C438.01 45.6617 438.126 45.7191 438.332 45.8338C438.539 45.9485 438.758 46.1014 438.99 46.2925C439.222 46.4454 439.428 46.6366 439.608 46.866C439.814 47.0571 439.943 47.2292 439.995 47.3821C440.021 47.535 440.033 47.8217 440.033 48.2423C440.059 48.6628 440.085 49.1598 440.111 49.7332C440.781 50.2685 441.477 50.861 442.198 51.511C442.92 52.1991 443.59 52.849 444.209 53.4607C444.905 54.1106 445.575 54.7987 446.219 55.5251C446.425 55.7163 446.567 55.9839 446.644 56.328C446.696 56.6338 446.696 56.9014 446.644 57.1308ZM463.732 69.288C463.01 69.288 462.379 69.0969 461.838 68.7146C461.245 69.6321 460.626 70.4923 459.982 71.2951C459.363 72.0979 458.745 72.8052 458.126 73.4169C457.508 74.0286 456.902 74.5256 456.309 74.9079C455.691 75.2519 455.124 75.4431 454.608 75.4813C454.351 75.4813 453.964 75.3284 453.448 75.0225C452.959 74.6785 452.469 74.2388 451.979 73.7036C451.49 73.1684 451.064 72.5567 450.704 71.8686C450.343 71.1422 450.162 70.4349 450.162 69.7468C450.162 68.0264 450.278 66.2869 450.51 64.5283C450.742 62.808 451.026 61.1067 451.361 59.4246C451.722 57.7043 452.108 56.0221 452.521 54.3782C452.933 52.7725 453.32 51.2051 453.68 49.6759C454.582 50.2876 455.459 50.9566 456.309 51.683C457.16 52.4094 457.959 53.2695 458.706 54.2635C458.448 55.0281 458.178 55.9265 457.894 56.9588C457.637 57.991 457.392 59.0614 457.16 60.1701C456.902 61.2405 456.67 62.3301 456.464 63.4388C456.258 64.5475 456.064 65.5606 455.884 66.4781C455.729 67.4338 455.613 68.2749 455.536 69.0013C455.433 69.6894 455.381 70.2055 455.381 70.5496C455.381 70.7408 455.42 70.9319 455.497 71.1231C455.549 71.276 455.652 71.3524 455.807 71.3524C456.09 71.3524 456.399 71.2186 456.735 70.951C457.07 70.6834 457.43 70.3393 457.817 69.9188C458.204 69.4983 458.603 68.9822 459.015 68.3705C459.402 67.797 459.789 67.1853 460.175 66.5354C459.84 65.7326 459.673 64.9298 459.673 64.1269C459.673 63.5535 459.737 62.8844 459.866 62.1198C459.969 61.3552 460.124 60.5524 460.33 59.7113C460.51 58.8703 460.716 58.0292 460.948 57.1881C461.206 56.3471 461.451 55.5634 461.683 54.837C461.941 54.0724 462.198 53.4225 462.456 52.8872C462.688 52.352 462.894 51.9506 463.075 51.683C463.487 51.9124 463.912 52.2373 464.351 52.6579C464.789 53.0402 465.201 53.4607 465.588 53.9195C465.948 54.3782 466.245 54.8179 466.477 55.2384C466.709 55.6972 466.851 56.0603 466.902 56.328C466.902 56.9014 466.812 57.5513 466.631 58.2777C466.451 59.0041 466.206 59.7878 465.897 60.6289C465.588 61.4699 465.214 62.3683 464.776 63.3241C464.363 64.2416 463.899 65.1591 463.384 66.0767C463.487 66.1531 463.59 66.2105 463.693 66.2487C463.822 66.2869 463.964 66.306 464.119 66.306C464.814 66.306 465.446 66.1914 466.013 65.962C466.554 65.7708 467.07 65.465 467.559 65.0445C468.049 64.6622 468.539 64.1652 469.028 63.5535C469.492 62.9418 470.008 62.2536 470.575 61.489C470.729 61.7184 470.936 62.0243 471.193 62.4066C471.451 62.7889 471.657 63.1138 471.812 63.3814C471.064 64.4901 470.369 65.4076 469.724 66.134C469.054 66.8986 468.397 67.5103 467.753 67.9691C467.108 68.4278 466.464 68.7528 465.82 68.9439C465.175 69.1733 464.479 69.288 463.732 69.288ZM471.966 75.4813C471.709 75.4813 471.374 75.3475 470.961 75.0799C470.549 74.8123 470.162 74.4873 469.802 74.105C469.441 73.6845 469.119 73.2257 468.835 72.7287C468.577 72.2317 468.448 71.7539 468.448 71.2951C468.629 70.1482 468.874 68.8292 469.183 67.3383C469.466 65.8473 469.789 64.3181 470.149 62.7506C470.485 61.2214 470.845 59.7113 471.232 58.2204C471.593 56.7676 471.928 55.4678 472.237 54.3209C472.546 53.174 472.817 52.2373 473.049 51.511C473.281 50.8228 473.436 50.4787 473.513 50.4787C473.616 50.4787 473.874 50.6508 474.286 50.9948C474.724 51.3007 475.175 51.7021 475.639 52.1991C476.103 52.6961 476.515 53.2122 476.876 53.7474C477.263 54.2826 477.456 54.7414 477.456 55.1237C477.456 55.2002 477.443 55.2957 477.418 55.4104C477.392 55.5251 477.366 55.678 477.34 55.8692C477.186 56.5191 477.005 57.2837 476.799 58.163C476.567 59.0805 476.335 60.0172 476.103 60.9729C475.845 61.8905 475.6 62.8271 475.369 63.7829C475.111 64.7386 474.879 65.637 474.673 66.4781C474.492 67.3192 474.338 68.0646 474.209 68.7146C474.08 69.3262 474.015 69.7659 474.015 70.0335C474.015 70.2247 474.067 70.3202 474.17 70.3202C474.376 70.3202 474.673 70.1482 475.059 69.8041C475.446 69.46 475.897 69.0013 476.412 68.4278C476.902 67.8926 477.418 67.3 477.959 66.6501C478.5 66.0002 479.028 65.3503 479.544 64.7004C480.033 64.0505 480.485 63.477 480.897 62.98C481.309 62.4448 481.619 62.0434 481.825 61.7758C481.979 62.0052 482.173 62.311 482.405 62.6933C482.611 63.0756 482.817 63.4197 483.023 63.7255C482.637 64.299 482.147 64.9871 481.554 65.7899C480.987 66.631 480.356 67.4721 479.66 68.3131C478.99 69.1924 478.294 70.0526 477.572 70.8937C476.825 71.773 476.116 72.5567 475.446 73.2448C474.75 73.933 474.106 74.4873 473.513 74.9079C472.894 75.2902 472.379 75.4813 471.966 75.4813ZM482.443 38.4936C482.418 38.6082 482.353 38.8567 482.25 39.239C482.121 39.6596 481.979 40.1375 481.825 40.6727C481.67 41.2079 481.49 41.7622 481.283 42.3357C481.077 42.9474 480.884 43.5017 480.704 43.9987C480.497 44.4957 480.304 44.8971 480.124 45.203C479.943 45.547 479.802 45.7191 479.698 45.7191C479.389 45.6808 479.015 45.5279 478.577 45.2603C478.113 45.0309 477.675 44.7442 477.263 44.4001C476.85 44.0561 476.503 43.7311 476.219 43.4253C475.936 43.1194 475.794 42.9091 475.794 42.7945C475.794 42.221 475.897 41.4946 476.103 40.6153C476.309 39.7743 476.554 38.9332 476.838 38.0921C477.121 37.2511 477.405 36.5438 477.688 35.9704C477.972 35.3587 478.204 35.0528 478.384 35.0528C478.693 35.0528 479.08 35.2058 479.544 35.5116C479.982 35.8174 480.42 36.1615 480.858 36.5438C481.296 36.9261 481.67 37.3084 481.979 37.6907C482.289 38.073 482.443 38.3406 482.443 38.4936ZM483.835 76.2268C483.526 76.2268 483.165 76.093 482.753 75.8254C482.34 75.5195 481.928 75.099 481.515 74.5638C481.077 74.0668 480.665 73.4742 480.278 72.7861C479.892 72.0979 479.557 71.3716 479.273 70.607C479.17 70.3393 479.106 70.0144 479.08 69.6321C479.054 69.2498 479.041 68.7719 479.041 68.1984C479.041 66.7075 479.196 65.2165 479.505 63.7255C479.814 62.2345 480.24 60.8009 480.781 59.4246C481.322 58.0866 481.979 56.825 482.753 55.6398C483.5 54.4164 484.325 53.3842 485.227 52.5432C486.129 51.6639 487.095 50.9757 488.126 50.4787C489.131 49.9817 490.162 49.7332 491.219 49.7332C491.399 49.7332 491.619 49.8671 491.876 50.1347C492.16 50.364 492.456 50.689 492.765 51.1095C493.075 51.5301 493.397 52.0079 493.732 52.5432C494.067 53.0784 494.363 53.6136 494.621 54.1488C494.879 54.6841 495.098 55.2002 495.278 55.6972C495.433 56.1942 495.51 56.6338 495.51 57.0161C495.433 57.5131 495.162 58.0674 494.698 58.6791C494.235 59.2526 493.693 59.8069 493.075 60.3421C492.456 60.8391 491.799 61.2597 491.103 61.6037C490.407 61.9478 489.814 62.1198 489.325 62.1198C489.015 62.1198 488.861 61.986 488.861 61.7184C488.861 61.4126 488.99 60.9921 489.247 60.4568C489.505 59.8834 489.802 59.2526 490.137 58.5644C490.472 57.9145 490.768 57.2646 491.026 56.6147C491.283 55.9265 491.412 55.3531 491.412 54.8943C491.412 54.6649 491.374 54.4738 491.296 54.3209C491.219 54.168 491.116 54.0915 490.987 54.0915C490.601 54.0915 490.188 54.34 489.75 54.837C489.338 55.3722 488.912 56.0604 488.474 56.9014C488.062 57.7807 487.662 58.7747 487.276 59.8834C486.889 60.9921 486.554 62.139 486.271 63.3241C485.961 64.5092 485.716 65.6753 485.536 66.8222C485.381 68.0073 485.304 69.0778 485.304 70.0335C485.304 70.607 485.407 71.0084 485.613 71.2378C485.845 71.4671 486.206 71.5818 486.696 71.5818C487.881 71.5818 489.015 71.2951 490.098 70.7216C491.206 70.11 492.263 69.3454 493.268 68.4278C494.299 67.5103 495.265 66.4781 496.168 65.3312C497.095 64.1843 497.959 63.0374 498.758 61.8905C498.964 62.1963 499.209 62.5213 499.492 62.8653C499.776 63.2094 499.982 63.4961 500.111 63.7255C499.028 65.4076 497.869 67.0133 496.631 68.5425C495.42 70.0717 494.131 71.4098 492.765 72.5567C491.399 73.7036 489.982 74.602 488.513 75.2519C487.018 75.9018 485.459 76.2268 483.835 76.2268ZM515.884 61.7758L517.16 63.7255C515.536 66.0576 514.003 68.0264 512.559 69.6321C511.142 71.2377 509.776 72.5185 508.461 73.4742C507.173 74.43 505.923 75.1181 504.711 75.5387C503.526 75.9592 502.366 76.1695 501.232 76.1695C500.768 76.1695 500.24 75.9018 499.647 75.3666C499.08 74.8696 498.539 74.2388 498.023 73.4742C497.533 72.7478 497.121 71.9832 496.786 71.1804C496.451 70.3393 496.284 69.6321 496.284 69.0586C496.284 66.9177 496.477 64.9489 496.863 63.1521C497.276 61.3935 497.804 59.7878 498.448 58.335C499.093 56.8823 499.84 55.6207 500.691 54.5503C501.515 53.4416 502.379 52.5241 503.281 51.7977C504.209 51.0713 505.124 50.517 506.026 50.1347C506.902 49.7906 507.727 49.6186 508.5 49.6186C509.041 49.6186 509.582 49.8479 510.124 50.3067C510.665 50.7655 511.155 51.3389 511.593 52.0271C512.031 52.7152 512.379 53.4225 512.637 54.1488C512.92 54.9134 513.062 55.5634 513.062 56.0986C513.062 56.9779 512.817 57.8954 512.327 58.8512C511.812 59.7687 511.103 60.7053 510.201 61.6611C509.273 62.6168 508.165 63.6108 506.876 64.643C505.588 65.637 504.17 66.6501 502.624 67.6823C502.572 68.294 502.546 68.9057 502.546 69.5174C502.546 70.3202 502.662 70.8746 502.894 71.1804C503.126 71.448 503.577 71.5818 504.247 71.5818C505.407 71.5818 506.503 71.2951 507.533 70.7216C508.564 70.1482 509.557 69.4027 510.51 68.4852C511.464 67.5677 512.379 66.5163 513.255 65.3312C514.131 64.1843 515.008 62.9991 515.884 61.7758ZM507.843 53.9195C507.508 53.9195 507.121 54.2062 506.683 54.7796C506.271 55.3149 505.858 56.0412 505.446 56.9588C505.008 57.8763 504.595 58.9276 504.209 60.1128C503.822 61.2979 503.487 62.5404 503.204 63.8402C503.848 63.1903 504.492 62.5213 505.137 61.8331C505.755 61.1067 506.309 60.3612 506.799 59.5966C507.289 58.832 507.688 58.0483 507.997 57.2455C508.281 56.4427 508.423 55.6398 508.423 54.837C508.423 54.5694 508.384 54.3591 508.307 54.2062C508.204 54.015 508.049 53.9195 507.843 53.9195ZM515.381 62.5213C515.768 61.9478 516.219 61.2979 516.735 60.5715C517.276 59.8451 517.804 59.0423 518.32 58.163C518.835 57.3219 519.312 56.4044 519.75 55.4104C520.214 54.4165 520.575 53.346 520.832 52.1991C520.91 51.5874 521.026 50.9566 521.18 50.3067C521.309 49.6186 521.477 49.0069 521.683 48.4716C521.863 47.8982 522.044 47.4394 522.224 47.0954C522.379 46.7131 522.533 46.5219 522.688 46.5219C522.894 46.7131 523.204 47.0571 523.616 47.5541C524.054 48.0893 524.479 48.6437 524.892 49.2171C525.33 49.7906 525.704 50.3067 526.013 50.7655C526.348 51.2625 526.515 51.5683 526.515 51.683C526.309 52.8681 526.206 53.9577 526.206 54.9517C526.206 55.9074 526.258 56.8441 526.361 57.7616C526.464 58.7174 526.567 59.7305 526.67 60.8009C526.799 61.8331 526.863 63.0565 526.863 64.471C526.863 65.3121 526.773 66.2678 526.593 67.3383C526.412 68.4087 526.09 69.3836 525.626 70.2629C526.528 69.46 527.418 68.5808 528.294 67.625C529.17 66.631 529.956 65.7135 530.652 64.8724C531.451 63.8402 532.224 62.808 532.972 61.7758L534.17 63.7255C533.577 64.5283 532.946 65.3885 532.276 66.306C531.58 67.2236 530.871 68.122 530.149 69.0013C529.428 69.8806 528.68 70.7216 527.907 71.5245C527.16 72.3655 526.412 73.0919 525.665 73.7036C524.918 74.3153 524.209 74.8123 523.539 75.1946C522.843 75.5769 522.198 75.768 521.606 75.768C521.09 75.768 520.523 75.5769 519.905 75.1946C519.286 74.8123 518.706 74.3726 518.165 73.8756C517.624 73.3404 517.147 72.7861 516.735 72.2126C516.322 71.6392 516.09 71.1613 516.039 70.779C516.039 70.7025 516.064 70.5878 516.116 70.4349C516.193 70.282 516.283 70.11 516.387 69.9188C516.49 69.7277 516.58 69.5556 516.657 69.4027C516.76 69.2498 516.838 69.1733 516.889 69.1733C516.992 69.1733 517.211 69.3071 517.546 69.5747C517.856 69.8041 518.384 69.9188 519.131 69.9188C519.518 69.9188 519.866 69.7659 520.175 69.4601C520.459 69.116 520.691 68.6954 520.871 68.1984C521.077 67.6632 521.219 67.0515 521.296 66.3634C521.399 65.6753 521.451 64.968 521.451 64.2416C521.451 63.1329 521.412 62.0625 521.335 61.0303C521.258 59.9981 521.18 59.0041 521.103 58.0483C520.794 58.5453 520.446 59.0805 520.059 59.654C519.673 60.2274 519.286 60.8009 518.899 61.3744C518.487 61.9478 518.088 62.5021 517.701 63.0374C517.314 63.5726 516.954 64.0505 516.619 64.471L515.381 62.5213Z" fill="white"/>
<path d="M101.486 35.4545L52.0111 0.821703C51.7559 0.643003 51.4518 0.54715 51.1402 0.54715C50.8287 0.54715 50.5246 0.643003 50.2694 0.821703L0.806758 35.4545C0.478051 35.6863 0.254475 36.0387 0.184919 36.4349C0.115363 36.831 0.205485 37.2385 0.43558 37.5684L7.17186 47.1885C7.28585 47.3523 7.4311 47.492 7.59926 47.5995C7.76742 47.707 7.95517 47.7802 8.15171 47.8148C8.34825 47.8495 8.54972 47.845 8.74451 47.8016C8.93931 47.7581 9.12359 47.6766 9.28677 47.5617L51.1474 18.2467L93.006 47.5617C93.1693 47.6761 93.3536 47.7572 93.5483 47.8003C93.743 47.8435 93.9443 47.8478 94.1407 47.8132C94.3371 47.7785 94.5248 47.7055 94.6929 47.5983C94.8611 47.4911 95.0065 47.3519 95.1209 47.1885L101.858 37.5684C102.088 37.2384 102.178 36.8308 102.108 36.4347C102.039 36.0385 101.815 35.6861 101.486 35.4545V35.4545Z" fill="white"/>
<path d="M89.1932 50.8503L52.0172 24.8168C51.762 24.6384 51.4582 24.5428 51.1469 24.5428C50.8355 24.5428 50.5317 24.6384 50.2765 24.8168L12.9027 50.989C12.7025 51.1288 12.5391 51.315 12.4263 51.5316C12.3136 51.7482 12.2549 51.9888 12.2552 52.233V92.4651C12.2552 93.3013 12.9353 93.9825 13.7746 93.9825H39.7795C40.182 93.9822 40.5678 93.8223 40.8525 93.5378C41.1372 93.2534 41.2973 92.8676 41.2979 92.4651V57.4051H60.9989V92.4651C60.9989 93.3013 61.6781 93.9825 62.5173 93.9825H88.3254C89.1647 93.9825 89.8407 93.3013 89.8407 92.4651V52.0933C89.8407 51.8493 89.7818 51.609 89.6691 51.3926C89.5564 51.1762 89.3931 50.9902 89.1932 50.8503V50.8503ZM75.689 12.2038L87.3251 20.3514C87.5528 20.5104 87.8197 20.6042 88.0968 20.6225C88.3739 20.6409 88.6508 20.5831 88.8975 20.4554C89.3972 20.1944 89.7143 19.6743 89.7143 19.1084V1.91484C89.7143 1.07663 89.0341 0.397491 88.1959 0.397491H76.5578C75.7196 0.397491 75.0405 1.07765 75.0405 1.91484V10.9608C75.0395 11.4543 75.2801 11.9193 75.689 12.2038V12.2038Z" fill="white"/>
</g>
<defs>
<clipPath id="clip0_2_2">
<rect width="546" height="94" fill="white"/>
</clipPath>
</defs>
</svg>
