<?xml version="1.0" standalone="no"?><svg xmlns:xlink="http://www.w3.org/1999/xlink" xmlns="http://www.w3.org/2000/svg" viewBox="0 0 1000 636.3655796928673" preserveAspectRatio="xMaxYMax slice"><g transform="scale(1.6443555030823445)"><rect x="0" y="0" width="608.1428571428571" height="387" fill="#ffffff"/><rect x="0" y="0" width="55.285714285714285" height="55.285714285714285" fill="#ffffff"/><path d="M 0 0 A 27.64 27.64 0 0 1  27.64 27.64 L 0 0 A 27.64 27.64 0 0 0 27.64 27.64" fill="#e599a1"/><path d="M 27.64 0 A 27.64 27.64 0 0 1  55.28 27.64 L 27.64 0 A 27.64 27.64 0 0 0 55.28 27.64" fill="#eebbc0"/><path d="M 27.64 27.64 A 27.64 27.64 0 0 1  55.28 55.28 L 27.64 27.64 A 27.64 27.64 0 0 0 55.28 55.28" fill="#fdf9f9"/><path d="M 110.57 55.29 A 55.29 55.29 0 0 1  165.85999999999999 0 L 110.57 55.29 A 55.29 55.29 0 0 0 165.85999999999999 0" fill="#ffe5e6"/><path d="M 552.86 0 A 55.29 55.29 0 0 1  608.15 55.29 L 552.86 0 A 55.29 55.29 0 0 0 608.15 55.29" fill="#cb3242"/><path d="M 0 55.29 A 55.29 55.29 0 0 1  55.29 110.58 L 0 55.29 A 55.29 55.29 0 0 0 55.29 110.58" fill="#ffebec"/><rect x="55.285714285714285" y="55.285714285714285" width="55.285714285714285" height="55.285714285714285" fill="#ffffff"/><rect x="221.14285714285714" y="55.285714285714285" width="55.285714285714285" height="55.285714285714285" fill="#ffffff"/><path d="M 248.79 82.93 A 27.64 27.64 0 0 1  276.43 55.29 L 248.79 82.93 A 27.64 27.64 0 0 0 276.43 55.29" fill="#ffaeb0"/><path d="M 221.14 110.57000000000001 A 27.64 27.64 0 0 1  248.77999999999997 82.93 L 221.14 110.57000000000001 A 27.64 27.64 0 0 0 248.77999999999997 82.93" fill="#ffa1a4"/><path d="M 276.43 55.29 A 55.29 55.29 0 0 1  331.72 110.58 L 276.43 55.29 A 55.29 55.29 0 0 0 331.72 110.58" fill="#efbfc4"/><rect x="552.8571428571429" y="55.285714285714285" width="55.285714285714285" height="55.285714285714285" fill="#ffffff"/><path d="M 580.5 55.29 A 27.64 27.64 0 0 1  608.14 82.93 L 580.5 55.29 A 27.64 27.64 0 0 0 608.14 82.93" fill="#ca3140"/><path d="M 580.5 110.57000000000001 A 27.64 27.64 0 0 1  608.14 82.93 L 580.5 110.57000000000001 A 27.64 27.64 0 0 0 608.14 82.93" fill="#ffc1c3"/><path d="M 110.57 110.57 A 55.29 55.29 0 0 1  165.85999999999999 165.85999999999999 L 110.57 110.57 A 55.29 55.29 0 0 0 165.85999999999999 165.85999999999999" fill="#ff8488"/><rect x="276.42857142857144" y="110.57142857142857" width="55.285714285714285" height="55.285714285714285" fill="#ffffff"/><path d="M 276.43 110.57 A 27.64 27.64 0 0 1  304.07 138.20999999999998 L 276.43 110.57 A 27.64 27.64 0 0 0 304.07 138.20999999999998" fill="#e28c95"/><path d="M 304.07 138.21 A 27.64 27.64 0 0 1  331.71 165.85000000000002 L 304.07 138.21 A 27.64 27.64 0 0 0 331.71 165.85000000000002" fill="#ffa5a7"/><path d="M 442.29 110.57 A 55.29 55.29 0 0 1  497.58000000000004 165.85999999999999 L 442.29 110.57 A 55.29 55.29 0 0 0 497.58000000000004 165.85999999999999" fill="#ff8387"/><path d="M 110.57 165.86 A 55.29 55.29 0 0 1  165.85999999999999 221.15 L 110.57 165.86 A 55.29 55.29 0 0 0 165.85999999999999 221.15" fill="#eaadb3"/><path d="M 442.29 221.15 A 55.29 55.29 0 0 1  497.58000000000004 165.86 L 442.29 221.15 A 55.29 55.29 0 0 0 497.58000000000004 165.86" fill="#db707b"/><rect x="552.8571428571429" y="165.85714285714286" width="55.285714285714285" height="55.285714285714285" fill="#ffffff"/><path d="M 580.5 221.14 A 27.64 27.64 0 0 1  608.14 193.5 L 580.5 221.14 A 27.64 27.64 0 0 0 608.14 193.5" fill="#ff6469"/><rect x="55.285714285714285" y="221.14285714285714" width="55.285714285714285" height="55.285714285714285" fill="#ffffff"/><path d="M 55.29 221.14 A 27.64 27.64 0 0 1  82.93 248.77999999999997 L 55.29 221.14 A 27.64 27.64 0 0 0 82.93 248.77999999999997" fill="#d96874"/><path d="M 82.93 248.77999999999997 A 27.64 27.64 0 0 1  110.57000000000001 221.14 L 82.93 248.77999999999997 A 27.64 27.64 0 0 0 110.57000000000001 221.14" fill="#ffafb1"/><path d="M 82.93 276.43 A 27.64 27.64 0 0 1  110.57000000000001 248.79 L 82.93 276.43 A 27.64 27.64 0 0 0 110.57000000000001 248.79" fill="#ffa9ab"/><rect x="331.7142857142857" y="221.14285714285714" width="55.285714285714285" height="55.285714285714285" fill="#ffffff"/><path d="M 359.36 221.14 A 27.64 27.64 0 0 1  387 248.77999999999997 L 359.36 221.14 A 27.64 27.64 0 0 0 387 248.77999999999997" fill="#ce404f"/><path d="M 331.71 276.43 A 27.64 27.64 0 0 1  359.34999999999997 248.79 L 331.71 276.43 A 27.64 27.64 0 0 0 359.34999999999997 248.79" fill="#ffc4c5"/><path d="M 442.29 221.14 A 55.29 55.29 0 0 1  497.58000000000004 276.43 L 442.29 221.14 A 55.29 55.29 0 0 0 497.58000000000004 276.43" fill="#ffbfc1"/><rect x="497.57142857142856" y="221.14285714285714" width="55.285714285714285" height="55.285714285714285" fill="#ffffff"/><path d="M 497.57 248.77999999999997 A 27.64 27.64 0 0 1  525.21 221.14 L 497.57 248.77999999999997 A 27.64 27.64 0 0 0 525.21 221.14" fill="#f1c8cc"/><rect x="165.85714285714286" y="276.42857142857144" width="55.285714285714285" height="55.285714285714285" fill="#ffffff"/><path d="M 193.5 304.07 A 27.64 27.64 0 0 1  221.14 276.43 L 193.5 304.07 A 27.64 27.64 0 0 0 221.14 276.43" fill="#e0868f"/><path d="M 221.14 276.43 A 55.29 55.29 0 0 1  276.43 331.72 L 221.14 276.43 A 55.29 55.29 0 0 0 276.43 331.72" fill="#ff9497"/><path d="M 276.43 331.72 A 55.29 55.29 0 0 1  331.72 276.43 L 276.43 331.72 A 55.29 55.29 0 0 0 331.72 276.43" fill="#ffb5b7"/><path d="M 442.29 276.43 A 55.29 55.29 0 0 1  497.58000000000004 331.72 L 442.29 276.43 A 55.29 55.29 0 0 0 497.58000000000004 331.72" fill="#ffd9da"/><path d="M 552.86 276.43 A 55.29 55.29 0 0 1  608.15 331.72 L 552.86 276.43 A 55.29 55.29 0 0 0 608.15 331.72" fill="#ffeff0"/><rect x="55.285714285714285" y="331.7142857142857" width="55.285714285714285" height="55.285714285714285" fill="#ffffff"/><path d="M 55.29 387 A 27.64 27.64 0 0 1  82.93 359.36 L 55.29 387 A 27.64 27.64 0 0 0 82.93 359.36" fill="#ff9699"/><rect x="165.85714285714286" y="331.7142857142857" width="55.285714285714285" height="55.285714285714285" fill="#ffffff"/><path d="M 165.86 359.36 A 27.64 27.64 0 0 1  193.5 387 L 165.86 359.36 A 27.64 27.64 0 0 0 193.5 387" fill="#ffaaac"/><path d="M 221.14 387 A 55.29 55.29 0 0 1  276.43 331.71 L 221.14 387 A 55.29 55.29 0 0 0 276.43 331.71" fill="#ff8083"/></g></svg>