<?xml version="1.0" standalone="no"?><svg xmlns="http://www.w3.org/2000/svg" viewBox="0 0 1440 320"><path fill="#0099ff" fill-opacity="1" d="M0,0L18.5,42.7C36.9,85,74,171,111,208C147.7,245,185,235,222,218.7C258.5,203,295,181,332,192C369.2,203,406,245,443,261.3C480,277,517,267,554,240C590.8,213,628,171,665,170.7C701.5,171,738,213,775,208C812.3,203,849,149,886,138.7C923.1,128,960,160,997,160C1033.8,160,1071,128,1108,128C1144.6,128,1182,160,1218,181.3C1255.4,203,1292,213,1329,186.7C1366.2,160,1403,96,1422,64L1440,32L1440,320L1421.5,320C1403.1,320,1366,320,1329,320C1292.3,320,1255,320,1218,320C1181.5,320,1145,320,1108,320C1070.8,320,1034,320,997,320C960,320,923,320,886,320C849.2,320,812,320,775,320C738.5,320,702,320,665,320C627.7,320,591,320,554,320C516.9,320,480,320,443,320C406.2,320,369,320,332,320C295.4,320,258,320,222,320C184.6,320,148,320,111,320C73.8,320,37,320,18,320L0,320Z"></path></svg>