<?xml version="1.0" standalone="no"?>
<svg xmlns:xlink="http://www.w3.org/1999/xlink" id="wave" style="transform:rotate(180deg); transition: 0.3s" viewBox="0 0 1440 490" version="1.1" xmlns="http://www.w3.org/2000/svg"><defs><linearGradient id="sw-gradient-0" x1="0" x2="0" y1="1" y2="0"><stop stop-color="rgba(255, 86, 91, 1)" offset="0%"/><stop stop-color="rgba(212.061, 77.297, 81.284, 1)" offset="100%"/></linearGradient></defs><path style="transform:translate(0, 0px); opacity:1" fill="url(#sw-gradient-0)" d="M0,392L80,383.8C160,376,320,359,480,367.5C640,376,800,408,960,400.2C1120,392,1280,343,1440,318.5C1600,294,1760,294,1920,318.5C2080,343,2240,392,2400,375.7C2560,359,2720,278,2880,261.3C3040,245,3200,294,3360,294C3520,294,3680,245,3840,196C4000,147,4160,98,4320,114.3C4480,131,4640,212,4800,204.2C4960,196,5120,98,5280,98C5440,98,5600,196,5760,212.3C5920,229,6080,163,6240,171.5C6400,180,6560,261,6720,302.2C6880,343,7040,343,7200,294C7360,245,7520,147,7680,138.8C7840,131,8000,212,8160,228.7C8320,245,8480,196,8640,204.2C8800,212,8960,278,9120,253.2C9280,229,9440,114,9600,89.8C9760,65,9920,131,10080,196C10240,261,10400,327,10560,351.2C10720,376,10880,359,11040,359.3C11200,359,11360,376,11440,383.8L11520,392L11520,490L11440,490C11360,490,11200,490,11040,490C10880,490,10720,490,10560,490C10400,490,10240,490,10080,490C9920,490,9760,490,9600,490C9440,490,9280,490,9120,490C8960,490,8800,490,8640,490C8480,490,8320,490,8160,490C8000,490,7840,490,7680,490C7520,490,7360,490,7200,490C7040,490,6880,490,6720,490C6560,490,6400,490,6240,490C6080,490,5920,490,5760,490C5600,490,5440,490,5280,490C5120,490,4960,490,4800,490C4640,490,4480,490,4320,490C4160,490,4000,490,3840,490C3680,490,3520,490,3360,490C3200,490,3040,490,2880,490C2720,490,2560,490,2400,490C2240,490,2080,490,1920,490C1760,490,1600,490,1440,490C1280,490,1120,490,960,490C800,490,640,490,480,490C320,490,160,490,80,490L0,490Z"/></svg>